<svg xmlns="http://www.w3.org/2000/svg" xml:space="preserve" style="fill-rule:evenodd;clip-rule:evenodd;stroke-linejoin:round;stroke-miterlimit:2" viewBox="0 0 1617 2088"><path d="M908.221 368.776c-1.893-3.025 29.404-61.049 90.593-75.727 33.576-8.055 76.996 11.959 89.636 34.547 7.15 12.773-2.24 37.359-4.29 50.041.93-.049 21.47-21.478 49.07-40.274 32.81-22.353 76.99-46.156 97.11-49.419 17.45-2.829 53.5-10.518 52.09 2.166-1 9.088-39.24 63.277-46.63 104.817-13.46 75.615 18.68 98.959 60.93 108.049 0 0-1.96 47.828-32.82 61.382-18.62 8.175-59.88 17.492-80.17 5.221-22.06-13.347-30.19-78.03-38.55-84.807-6.1-4.946-16.42 26.284-7.25 51.945 6.5 18.212 28.14 50.97 26.48 73.652-3.51 48.328-20.3 118.523-7.55 172.487 7.46 31.586 5.77 49.467 38.79 71.844 41.79 28.315 86.18-33.556 95.4-22.941 17.14 19.736-21.92 85.638-45.59 102.735-46.92 33.881-86.34-19.716-88.6 9.913-7.45 97.643 15.25 221.503 38.79 305.933 14.43 51.74 43.08 76.61 53.93 80.29-22.61 2.76-51.67 2.84-65.85-5.6 0 0-5.9 29.19 58.24 39 12.37 1.89 3.55 48.1 25.02 88.4 17.39 32.63 66.47 75.06 48.73 74.74-30.05-.53-124.63-25.13-170.54-91.25-111.2-160.13-93.53-277.11-106.04-402.46-11.42-114.495 8.44-336.554-8.85-345.198s-73.649 203.972-94.884 293.334c-43.824 184.474-12.046 235.244 0 262.254 8.901 19.95 20.728 36.29 36.889 41.45 37.735 12.07 36.725-20.62 60.515-11.25 20.59 8.1-42.967 98.34-91.703 82.34-19.942-6.54-34.826-8.86-36.64-3.99-3.791 10.15 47.854 37.49 47.854 37.49s5.447 51.15 14.184 70.46c8.416 18.56 25.099 53.83 25.099 53.83s-16.064 13.59-56.198-13.42c-26.71-17.99-77.432-84.03-82.444-83.74-5.001.27-29.368 42.73-42.739 63.53-32.946 51.24-77.635 38.51-77.635 38.51s-1.713-24.24 13.339-54.06c11.577-22.93 2.659-62.82 2.659-62.82s49.32-35.56 36.124-56.66c-4.314-6.89-42.023 28.59-95.081 0-16.283-8.76-33.254-53.92-33.254-53.92s45.877-11.55 62.832-23.77c16.956-12.23 36.296-22.62 38.902-49.58 2.474-25.61-2.784-68.51-9.523-101.97-8.372-41.58-23.806-99.37-40.709-147.491-24.904-70.893-89.828-246.175-108.712-277.869-14.985-25.149-5.634 58.449-4.593 87.706 1.375 38.632 11.393 95.888 12.841 144.086 2.14 71.225 2.959 193.658 0 283.268-2.804 84.94-12.273 171.29-17.751 254.37-5.521 83.71-28.752 177.89-62.317 238.69-21.863 39.6-54.571 88.7-78.82 105.94-36.591 26.01-51.093 16.75-51.093 16.75 62.488-77.74 50.001-196.09 17.101-231.79 0 0 42.325-27.77 58.918-44.36 17.384-17.37 61.335-70.1 34.437-62.22-24.86 7.29-89.498 52.01-139.742-7.16-20.667-24.34-57.751-89.2-55.233-100.47 2.185-9.78 56.477 14.76 80.159 14.16 21.474-.55 44.273-5.57 61.94-17.79 20.384-14.09 46.449-42.27 60.363-66.8 22.345-39.4 17.995-119.1 21.595-165.04 2.879-36.76 5.816-84.8 0-110.59-2.714-12.03-8.365-27.63-17.668-36.517-4.845-4.627-17.23-7.628-17.23-7.628s1.638-11.842-3.292-20.335c-11.019-18.981-33.687-42.884-43.768-52.487-10.097-9.62-26.605-9.157-40.479-10.575-17.247-1.763-57.486 11.218-63.006 0-1.31-2.664 23.617-53.939 41.545-70.369 17.646-16.169 24.387-29.422 66.028-28.206 22.492.657 63.851 42.08 68.245 42.301 5.78.29 3.721-17.99-2.695-37.391-4.878-14.749-13.295-30.147-16.762-38.524-10.906-26.348-43.383-33.312-43.056-40.434 1.003-21.823 37.045-80.865 18.062-152.184-6.843-25.706-46.886-84.23-98.508-84.034-26.271.1-65.166 2.682-87.623 14.73-22.844 12.255-40.34 34.802-44.566 56.341-5.227 26.643 8.875 55.919 22.283 73.959 18.843 25.352 59.69 33.344 90.765 6.043 6.046-5.312 9.296-24.388 2.901-29.837-3.264-2.781-11.053 2.878-16.619 4.155-19.112 4.383-24.649-1.281-31.347-8.309-11.026-11.567-6.798-31.725 0-40.79s16.313-19.939 40.79-13.597c12.678 3.286 28.2 26.816 32.102 42.953 3.903 16.137.567 40.193-8.686 53.87s-28.983 24.532-46.833 28.19c-18.317 3.754-42.529 7.238-63.073-5.665-33.862-21.269-60.566-59.163-66.094-71.382-13.441-29.712-24.378-67.874-22.682-102.983 1.822-37.718 16.429-91.456 33.613-123.328 15.371-28.507 44.008-51.424 69.494-67.903 24.908-16.106 54.417-24.764 83.422-30.97 29.632-6.341 62.326-3.565 92.599 0 32.373 3.812 115.438 56.499 138.824 85.042 9.043 11.038 32.48 31.121 32.48 31.121s-7.113-40.78 0-54.979 26.111-24.796 42.678-30.214c17.848-5.837 46.063-7.781 64.409-4.804 16.774 2.722 32.584 12.854 45.666 22.666 13.033 9.776 30.031 27.123 32.828 36.21 1.085 3.524.511 11.293-3.663 12.825-10.601 3.892-43.471 1.251-59.945 10.528-16.475 9.276-30.529 27.444-38.902 45.133-8.372 17.688-13.447 40.424-11.33 60.995 3.197 31.064 19.241 83.877 30.512 125.391 14.756 54.355 38.37 136.475 58.023 200.737 18.943 61.936 47.564 154.813 59.901 184.835 1.885 4.59 8.849 9.37 14.125-4.68 12.167-32.392 37.281-127.216 54.916-191.107 17.715-64.175 40.979-145.25 51.365-193.94 6.872-32.211 10.953-69.538 10.953-98.197 0-24.856-2.626-50.337-10.953-73.757-15.004-42.216-57.559-56.295-68.508-73.793" style="fill:#9a14a7"/><path d="m71.853 957.082-.786 10.213c0 25.659 4.19 44.645 12.569 56.945 4.974 7.34 11.193 11 18.656 11q11.193 0 14.728-13.35-9.426-23.567-9.427-52.632 0-12.176 31.421-12.176 5.498.001 5.498 5.891 0 19.639 4.321 38.487c5.236 24.62 16.103 36.92 32.599 36.92q7.46 0 13.745-8.64-15.317-26.311-15.317-64.41 0-7.463 10.409-15.121 10.407-7.659 18.655-7.658 9.426 0 9.425 31.027 0 3.141-1.571 14.924 6.678 23.965 16.888 37.898 10.214 13.95 29.066 13.95c16.233 0 32.728-11.52 49.486-34.57l2.748 4.72c-20.423 32.46-42.941 48.7-67.553 48.7-20.423 0-36.526-7.86-48.308-23.57-10.211 15.98-22.388 23.96-36.526 23.96q-27.493 0-42.025-29.85c-3.142 6.55-7.986 12.57-14.531 18.07q-9.82 8.25-23.565 8.25-20.817 0-34.759-21.21c-9.295-14.14-13.943-32.08-13.943-53.81l.785-11.39q.393-4.32 16.497-10.21 16.103-5.893 19.244-5.892 1.572 0 1.571 3.534" style="fill-rule:nonzero"/><path d="m71.853 957.082-.786 10.213c0 25.659 4.19 44.645 12.569 56.945 4.974 7.34 11.193 11 18.656 11q11.193 0 14.728-13.35-9.426-23.567-9.427-52.632 0-12.176 31.421-12.176 5.498.001 5.498 5.891 0 19.639 4.321 38.487c5.236 24.62 16.103 36.92 32.599 36.92q7.46 0 13.745-8.64-15.317-26.311-15.317-64.41 0-7.463 10.409-15.121 10.407-7.659 18.655-7.658 9.426 0 9.425 31.027 0 3.141-1.571 14.924 6.678 23.965 16.888 37.898 10.214 13.95 29.066 13.95c16.233 0 32.728-11.52 49.486-34.57l2.748 4.72c-20.423 32.46-42.941 48.7-67.553 48.7-20.423 0-36.526-7.86-48.308-23.57-10.211 15.98-22.388 23.96-36.526 23.96q-27.493 0-42.025-29.85c-3.142 6.55-7.986 12.57-14.531 18.07q-9.82 8.25-23.565 8.25-20.817 0-34.759-21.21c-9.295-14.14-13.943-32.08-13.943-53.81l.785-11.39q.393-4.32 16.497-10.21 16.103-5.893 19.244-5.892 1.572 0 1.571 3.534" style="fill-rule:nonzero"/><path d="M397.445 1021.1c3.403-7.59 5.107-17.15 5.107-28.67q-.001-17.282-4.517-27.296-4.518-10.015-10.409-10.015-4.32 0-7.462 5.498t-3.142 15.513q0 10.017 5.499 22.976 5.497 12.965 14.924 21.994m-64.804-20.03c0 11.52 3.077 21.27 9.23 29.26s14.205 11.98 24.153 11.98c9.951 0 18.067-3.53 24.351-10.6-10.211-7.08-18.591-17.02-25.135-29.85q-9.82-19.249-9.82-41.636 0-2.358.786-6.284-23.565 16.495-23.565 47.13m18.459 63.63c-15.186 0-26.903-5.11-35.151-15.32q-12.372-15.315-12.372-38.88 0-23.57 14.926-43.402 14.923-19.834 40.846-21.013 6.282-9.819 18.655-9.819 12.372 0 22.387 14.336t10.015 37.114c0 15.184-2.225 28.154-6.677 38.884 6.546 4.71 13.354 7.07 20.423 7.07 13.877 0 26.838-9.3 38.883-27.89l3.142 3.93c-12.83 20.95-28.41 31.42-46.737 31.42q-10.998 0-20.818-4.71c-5.759 8.9-12.894 15.84-21.403 20.81q-12.766 7.47-26.119 7.47" style="fill-rule:nonzero"/><path d="M397.445 1021.1c3.403-7.59 5.107-17.15 5.107-28.67q-.001-17.282-4.517-27.296-4.518-10.015-10.409-10.015-4.32 0-7.462 5.498t-3.142 15.513q0 10.017 5.499 22.976 5.497 12.965 14.924 21.994m-64.804-20.03c0 11.52 3.077 21.27 9.23 29.26s14.205 11.98 24.153 11.98c9.951 0 18.067-3.53 24.351-10.6-10.211-7.08-18.591-17.02-25.135-29.85q-9.82-19.249-9.82-41.636 0-2.358.786-6.284-23.565 16.495-23.565 47.13m18.459 63.63c-15.186 0-26.903-5.11-35.151-15.32q-12.372-15.315-12.372-38.88 0-23.57 14.926-43.402 14.923-19.834 40.846-21.013 6.282-9.819 18.655-9.819 12.372 0 22.387 14.336t10.015 37.114c0 15.184-2.225 28.154-6.677 38.884 6.546 4.71 13.354 7.07 20.423 7.07 13.877 0 26.838-9.3 38.883-27.89l3.142 3.93c-12.83 20.95-28.41 31.42-46.737 31.42q-10.998 0-20.818-4.71c-5.759 8.9-12.894 15.84-21.403 20.81q-12.766 7.47-26.119 7.47" style="fill-rule:nonzero"/><path d="M548.262 1021.1c3.404-7.59 5.106-17.15 5.106-28.67q0-17.282-4.517-27.296-4.516-10.015-10.407-10.015-4.32 0-7.464 5.498-3.142 5.499-3.142 15.513 0 10.017 5.499 22.976 5.499 12.965 14.925 21.994m-64.805-20.03c0 11.52 3.077 21.27 9.23 29.26s14.205 11.98 24.155 11.98c9.949 0 18.067-3.53 24.35-10.6-10.212-7.08-18.59-17.02-25.135-29.85q-9.819-19.249-9.819-41.636 0-2.358.786-6.284-23.567 16.495-23.567 47.13m18.46 63.63c-15.185 0-26.903-5.11-35.15-15.32q-12.372-15.315-12.372-38.88 0-23.57 14.924-43.402 14.926-19.834 40.846-21.013 6.284-9.819 18.656-9.819t22.387 14.336 10.015 37.114c0 15.184-2.225 28.154-6.677 38.884 6.547 4.71 13.353 7.07 20.424 7.07 13.877 0 26.838-9.3 38.882-27.89l3.143 3.93c-12.831 20.95-28.41 31.42-46.739 31.42q-10.997 0-20.816-4.71c-5.76 8.9-12.894 15.84-21.405 20.81q-12.764 7.47-26.118 7.47" style="fill-rule:nonzero"/><path d="M548.262 1021.1c3.404-7.59 5.106-17.15 5.106-28.67q0-17.282-4.517-27.296-4.516-10.015-10.407-10.015-4.32 0-7.464 5.498-3.142 5.499-3.142 15.513 0 10.017 5.499 22.976 5.499 12.965 14.925 21.994m-64.805-20.03c0 11.52 3.077 21.27 9.23 29.26s14.205 11.98 24.155 11.98c9.949 0 18.067-3.53 24.35-10.6-10.212-7.08-18.59-17.02-25.135-29.85q-9.819-19.249-9.819-41.636 0-2.358.786-6.284-23.567 16.495-23.567 47.13m18.46 63.63c-15.185 0-26.903-5.11-35.15-15.32q-12.372-15.315-12.372-38.88 0-23.57 14.924-43.402 14.926-19.834 40.846-21.013 6.284-9.819 18.656-9.819t22.387 14.336 10.015 37.114c0 15.184-2.225 28.154-6.677 38.884 6.547 4.71 13.353 7.07 20.424 7.07 13.877 0 26.838-9.3 38.882-27.89l3.143 3.93c-12.831 20.95-28.41 31.42-46.739 31.42q-10.997 0-20.816-4.71c-5.76 8.9-12.894 15.84-21.405 20.81q-12.764 7.47-26.118 7.47" style="fill-rule:nonzero"/><path d="m632.703 948.834-.391 9.427c0 18.59 4.843 47.659 14.528 87.189q23.174-84.047 40.064-93.081 11.392-9.818 21.206-9.818 3.143 0 3.145 3.534c0 2.356-1.444 5.498-4.319 9.426q1.569 5.107 4.518 16.495 2.942 11.39 5.099 19.246c1.443 5.237 3.602 11.198 6.484 17.868 2.88 6.68 5.891 12.11 9.029 16.3 7.858 9.95 17.809 14.93 29.855 14.93 16.229 0 32.73-11.52 49.481-34.57l2.752 4.72c-20.419 32.46-42.938 48.7-67.553 48.7-12.304 0-23.043-2.82-32.208-8.45s-16.099-13.15-20.811-22.58c-8.636-17.28-13.484-35.609-14.535-54.985q-14.53 25.924-26.315 69.515c-2.094 7.86-4.054 12.31-5.892 13.36-3.924 4.45-9.816 6.67-17.671 6.67s-11.783-.91-11.783-2.75q-.785-6.285-5.497-25.92-10.998-49.485-10.998-66.962t4.713-20.62 14.924-3.143q10.213 0 11.784 2.75.391.787.391 2.749" style="fill-rule:nonzero"/><path d="m632.703 948.834-.391 9.427c0 18.59 4.843 47.659 14.528 87.189q23.174-84.047 40.064-93.081 11.392-9.818 21.206-9.818 3.143 0 3.145 3.534c0 2.356-1.444 5.498-4.319 9.426q1.569 5.107 4.518 16.495 2.942 11.39 5.099 19.246c1.443 5.237 3.602 11.198 6.484 17.868 2.88 6.68 5.891 12.11 9.029 16.3 7.858 9.95 17.809 14.93 29.855 14.93 16.229 0 32.73-11.52 49.481-34.57l2.752 4.72c-20.419 32.46-42.938 48.7-67.553 48.7-12.304 0-23.043-2.82-32.208-8.45s-16.099-13.15-20.811-22.58c-8.636-17.28-13.484-35.609-14.535-54.985q-14.53 25.924-26.315 69.515c-2.094 7.86-4.054 12.31-5.892 13.36-3.924 4.45-9.816 6.67-17.671 6.67s-11.783-.91-11.783-2.75q-.785-6.285-5.497-25.92-10.998-49.485-10.998-66.962t4.713-20.62 14.924-3.143q10.213 0 11.784 2.75.391.787.391 2.749" style="fill-rule:nonzero"/><path d="M825.936 859.68c4.189 123.063 23.171 184.59 56.95 184.59q21.607 0 51.846-38.49l2.746 4.72c-24.614 36.65-48.108 54.98-70.499 54.98-22.385 0-40.522-17.08-54.392-51.25-13.882-34.171-21.211-79.666-21.997-136.484q-48.707 25.529-51.84 25.529c-3.409 0-5.104-1.832-5.104-5.498q-.002-5.499 5.497-8.641l51.447-27.492c.522-19.9 1.444-38.752 2.752-56.557 0-2.356 1.173-3.928 3.538-4.713 15.707-6.284 24.538-9.426 26.51-9.426q2.938 0 2.939 3.535-.785 19.637-.786 35.741v12.567l20.425-10.997q82.874-44.38 85.031-44.381 2.159 0 3.34 1.178c5.762 5.761 8.636 9.034 8.636 9.819s-.78 1.768-2.353 2.946q-2.357 1.765-17.479 9.426c-10.08 5.106-25.129 12.634-45.161 22.583q-30.05 14.925-52.046 26.315" style="fill-rule:nonzero"/><path d="M825.936 859.68c4.189 123.063 23.171 184.59 56.95 184.59q21.607 0 51.846-38.49l2.746 4.72c-24.614 36.65-48.108 54.98-70.499 54.98-22.385 0-40.522-17.08-54.392-51.25-13.882-34.171-21.211-79.666-21.997-136.484q-48.707 25.529-51.84 25.529c-3.409 0-5.104-1.832-5.104-5.498q-.002-5.499 5.497-8.641l51.447-27.492c.522-19.9 1.444-38.752 2.752-56.557 0-2.356 1.173-3.928 3.538-4.713 15.707-6.284 24.538-9.426 26.51-9.426q2.938 0 2.939 3.535-.785 19.637-.786 35.741v12.567l20.425-10.997q82.874-44.38 85.031-44.381 2.159 0 3.34 1.178c5.762 5.761 8.636 9.034 8.636 9.819s-.78 1.768-2.353 2.946q-2.357 1.765-17.479 9.426c-10.08 5.106-25.129 12.634-45.161 22.583q-30.05 14.925-52.046 26.315" style="fill-rule:nonzero"/><path d="M933.159 961.01c-1.309 10.996-1.959 20.03-1.959 27.099q-.002 37.306 14.334 57.931c9.552 13.75 21.212 20.62 34.953 20.62 13.748 0 27.423-4.78 41.043-14.33 13.61-9.56 26.32-23.5 38.1-41.83l-2.75-4.72c-20.42 28.02-39.28 42.03-56.56 42.03-10.996 0-19.898-5.89-26.705-17.68-6.806-11.78-10.215-27.75-10.215-47.911q0-15.71 2.746-31.813 0-3.536-2.939-3.535-2.95 0-26.509 9.425-3.539 1.178-3.539 4.714m32.799-84.442q6.084 6.676 6.086 16.103-.002 9.426-6.086 16.103c-4.059 4.451-8.906 6.677-14.532 6.677q-8.442 0-14.341-6.677c-3.926-4.452-5.885-9.819-5.885-16.103s1.959-11.652 5.885-16.103q5.899-6.677 14.341-6.677c5.626 0 10.473 2.226 14.532 6.677" style="fill-rule:nonzero"/><path d="M933.159 961.01c-1.309 10.996-1.959 20.03-1.959 27.099q-.002 37.306 14.334 57.931c9.552 13.75 21.212 20.62 34.953 20.62 13.748 0 27.423-4.78 41.043-14.33 13.61-9.56 26.32-23.5 38.1-41.83l-2.75-4.72c-20.42 28.02-39.28 42.03-56.56 42.03-10.996 0-19.898-5.89-26.705-17.68-6.806-11.78-10.215-27.75-10.215-47.911q0-15.71 2.746-31.813 0-3.536-2.939-3.535-2.95 0-26.509 9.425-3.539 1.178-3.539 4.714m32.799-84.442q6.084 6.676 6.086 16.103-.002 9.426-6.086 16.103c-4.059 4.451-8.906 6.677-14.532 6.677q-8.442 0-14.341-6.677c-3.926-4.452-5.885-9.819-5.885-16.103s1.959-11.652 5.885-16.103q5.899-6.677 14.341-6.677c5.626 0 10.473 2.226 14.532 6.677" style="fill-rule:nonzero"/><path d="M1199.44 1056.84c-1.82.26-4.38.39-7.65.39s-7.27-.26-11.98-.78c3.14 40.58 8.63 76.59 16.5 108.01q6.675 25.92 17.28 41.04c7.06 10.08 15.05 15.12 23.95 15.12 14.14 0 21.22-11.98 21.22-35.94 0-23.95-5.57-48.63-16.7-74.03s-25.33-43.33-42.62-53.81m-50.27-115.468q16.11 0 16.11 11.39c0 5.76-3.02 10.668-9.04 14.729-6.02 4.057-10.99 6.087-14.92 6.087q-3.54 0-3.54-5.892c0-10.997-5.1-16.494-15.31-16.494q-17.28-.001-29.07 15.317c-7.85 10.211-11.78 20.881-11.78 32.009 0 11.122 2.82 19.902 8.44 26.312 5.64 6.42 14.08 9.62 25.34 9.62 5.76 0 11.97-3.4 18.65-10.21 6.68-6.8 10.41-15.58 11.2-26.311-.27-5.238-.4-8.38-.4-9.427 0-2.356 1.97-4.32 5.9-5.89l19.24-7.855c.79-.525 1.7-.786 2.75-.786q3.54 0 3.54 5.89c0 18.068.52 34.829 1.56 50.269 10.47.79 20.3 4.19 29.46 10.22 20.16-5.5 36.01-17.02 47.52-34.57l2.75 4.72c-9.68 16.49-22.39 29.45-38.09 38.88 14.66 13.35 26.24 31.49 34.76 54.39 8.51 22.92 12.76 44.32 12.76 64.22s-3.21 35.55-9.62 46.93c-6.42 11.39-15.78 17.09-28.09 17.09-15.45 0-29.32-7.59-41.63-22.78-8.9-10.74-17.02-28.8-24.35-54.2-4.19-13.62-7.59-30.18-10.21-49.68q-3.93-29.265-5.1-47.13-1.185-17.88-1.38-24.75c-.13-4.58-.33-10.54-.59-17.87-4.44 13.09-12.57 23.76-24.35 32.01s-24.22 12.37-37.31 12.37-22.51-3.07-28.28-9.23c-5.76-6.15-8.64-13.94-8.64-23.36 0-9.43 2.36-19.05 7.07-28.872q7.065-14.73 19.44-27.689c8.24-8.641 18.98-15.71 32.21-21.209 13.22-5.499 27.55-8.248 43-8.248" style="fill-rule:nonzero"/><path d="M1199.44 1056.84c-1.82.26-4.38.39-7.65.39s-7.27-.26-11.98-.78c3.14 40.58 8.63 76.59 16.5 108.01q6.675 25.92 17.28 41.04c7.06 10.08 15.05 15.12 23.95 15.12 14.14 0 21.22-11.98 21.22-35.94 0-23.95-5.57-48.63-16.7-74.03s-25.33-43.33-42.62-53.81m-50.27-115.468q16.11 0 16.11 11.39c0 5.76-3.02 10.668-9.04 14.729-6.02 4.057-10.99 6.087-14.92 6.087q-3.54 0-3.54-5.892c0-10.997-5.1-16.494-15.31-16.494q-17.28-.001-29.07 15.317c-7.85 10.211-11.78 20.881-11.78 32.009 0 11.122 2.82 19.902 8.44 26.312 5.64 6.42 14.08 9.62 25.34 9.62 5.76 0 11.97-3.4 18.65-10.21 6.68-6.8 10.41-15.58 11.2-26.311-.27-5.238-.4-8.38-.4-9.427 0-2.356 1.97-4.32 5.9-5.89l19.24-7.855c.79-.525 1.7-.786 2.75-.786q3.54 0 3.54 5.89c0 18.068.52 34.829 1.56 50.269 10.47.79 20.3 4.19 29.46 10.22 20.16-5.5 36.01-17.02 47.52-34.57l2.75 4.72c-9.68 16.49-22.39 29.45-38.09 38.88 14.66 13.35 26.24 31.49 34.76 54.39 8.51 22.92 12.76 44.32 12.76 64.22s-3.21 35.55-9.62 46.93c-6.42 11.39-15.78 17.09-28.09 17.09-15.45 0-29.32-7.59-41.63-22.78-8.9-10.74-17.02-28.8-24.35-54.2-4.19-13.62-7.59-30.18-10.21-49.68q-3.93-29.265-5.1-47.13-1.185-17.88-1.38-24.75c-.13-4.58-.33-10.54-.59-17.87-4.44 13.09-12.57 23.76-24.35 32.01s-24.22 12.37-37.31 12.37-22.51-3.07-28.28-9.23c-5.76-6.15-8.64-13.94-8.64-23.36 0-9.43 2.36-19.05 7.07-28.872q7.065-14.73 19.44-27.689c8.24-8.641 18.98-15.71 32.21-21.209 13.22-5.499 27.55-8.248 43-8.248" style="fill-rule:nonzero"/><path d="M1332.59 961.795c0-2.355 1.18-3.927 3.53-4.713 15.71-6.283 24.55-9.425 26.51-9.425 1.97 0 2.96 1.177 2.96 3.535a172.4 172.4 0 0 0-2.76 30.634c0 19.634 3.41 35.414 10.21 47.324 6.81 11.92 15.84 17.87 27.1 17.87 17.28 0 35.87-13.74 55.78-41.24l2.74 4.72c-11.52 18.06-23.88 31.74-37.11 41.04-13.22 9.3-25.99 13.94-38.3 13.94-18.85 0-33.11-9.82-42.81-29.45-10.21 15.18-23.37 22.78-39.46 22.78-16.11 0-29.27-7.01-39.48-21.02s-15.32-30.57-15.32-49.681q0-27.886 12.18-35.74c6.29-3.665 13.74-5.498 22.39-5.498 2.35 0 3.53 4.712 3.53 14.139 0 9.425-1.83 19.637-5.5 30.634 3.67 18.586 12.05 31.686 25.14 39.276 5.24 3.14 10.8 4.71 16.69 4.71s11.45-2.48 16.69-7.46c-4.18-12.04-6.28-24.09-6.28-36.133s.52-22.125 1.57-30.242" style="fill-rule:nonzero"/><path d="M1332.59 961.795c0-2.355 1.18-3.927 3.53-4.713 15.71-6.283 24.55-9.425 26.51-9.425 1.97 0 2.96 1.177 2.96 3.535a172.4 172.4 0 0 0-2.76 30.634c0 19.634 3.41 35.414 10.21 47.324 6.81 11.92 15.84 17.87 27.1 17.87 17.28 0 35.87-13.74 55.78-41.24l2.74 4.72c-11.52 18.06-23.88 31.74-37.11 41.04-13.22 9.3-25.99 13.94-38.3 13.94-18.85 0-33.11-9.82-42.81-29.45-10.21 15.18-23.37 22.78-39.46 22.78-16.11 0-29.27-7.01-39.48-21.02s-15.32-30.57-15.32-49.681q0-27.886 12.18-35.74c6.29-3.665 13.74-5.498 22.39-5.498 2.35 0 3.53 4.712 3.53 14.139 0 9.425-1.83 19.637-5.5 30.634 3.67 18.586 12.05 31.686 25.14 39.276 5.24 3.14 10.8 4.71 16.69 4.71s11.45-2.48 16.69-7.46c-4.18-12.04-6.28-24.09-6.28-36.133s.52-22.125 1.57-30.242" style="fill-rule:nonzero"/><path d="m1496.76 932.731.39-5.106c0-3.141-3.53-4.713-10.61-4.713-7.06 0-13.41 2.096-19.04 6.285-5.63 4.19-8.45 9.818-8.45 16.888 0 12.567 9.04 18.852 27.1 18.852 2.89 0 5.83-.458 8.84-1.373a31.5 31.5 0 0 1 9.23-1.376q4.71 0 4.71 3.142c0 .261-1.04.851-3.13 1.768-2.1.916-4.66 2.291-7.66 4.124-3.02 1.832-6.09 4.189-9.24 7.069-7.32 6.808-10.99 16.103-10.99 27.889 0 11.78 3.53 20.75 10.61 26.9 7.06 6.15 16.23 9.23 27.49 9.23s22.77-3.27 34.55-9.82c11.79-6.55 21.35-15.45 28.68-26.71l2.74 4.72c-9.95 17.28-23.75 30.96-41.42 41.04-17.68 10.08-33.78 15.12-48.31 15.12q-21.81 0-33.39-9.03c-7.73-6.02-11.59-13.81-11.59-23.37s2.36-18.39 7.07-26.51 8.84-13.945 12.38-17.48c3.52-3.534 6.15-6.022 7.85-7.462s2.56-2.489 2.56-3.142c0-.654-.14-.982-.4-.982-8.38 3.142-16.49 4.713-24.35 4.713-13.88 0-20.81-5.63-20.81-16.888 0-15.187 8.63-28.278 25.91-39.277 17.28-10.996 32.41-16.494 45.37-16.494q19.44 0 19.44 9.425c0 3.928-2.1 8.117-6.28 12.568-4.19 4.452-8 6.678-11.39 6.678q-7.86 0-7.86-6.678" style="fill-rule:nonzero"/><path d="m1496.76 932.731.39-5.106c0-3.141-3.53-4.713-10.61-4.713-7.06 0-13.41 2.096-19.04 6.285-5.63 4.19-8.45 9.818-8.45 16.888 0 12.567 9.04 18.852 27.1 18.852 2.89 0 5.83-.458 8.84-1.373a31.5 31.5 0 0 1 9.23-1.376q4.71 0 4.71 3.142c0 .261-1.04.851-3.13 1.768-2.1.916-4.66 2.291-7.66 4.124-3.02 1.832-6.09 4.189-9.24 7.069-7.32 6.808-10.99 16.103-10.99 27.889 0 11.78 3.53 20.75 10.61 26.9 7.06 6.15 16.23 9.23 27.49 9.23s22.77-3.27 34.55-9.82c11.79-6.55 21.35-15.45 28.68-26.71l2.74 4.72c-9.95 17.28-23.75 30.96-41.42 41.04-17.68 10.08-33.78 15.12-48.31 15.12q-21.81 0-33.39-9.03c-7.73-6.02-11.59-13.81-11.59-23.37s2.36-18.39 7.07-26.51 8.84-13.945 12.38-17.48c3.52-3.534 6.15-6.022 7.85-7.462s2.56-2.489 2.56-3.142c0-.654-.14-.982-.4-.982-8.38 3.142-16.49 4.713-24.35 4.713-13.88 0-20.81-5.63-20.81-16.888 0-15.187 8.63-28.278 25.91-39.277 17.28-10.996 32.41-16.494 45.37-16.494q19.44 0 19.44 9.425c0 3.928-2.1 8.117-6.28 12.568-4.19 4.452-8 6.678-11.39 6.678q-7.86 0-7.86-6.678" style="fill-rule:nonzero"/></svg>